<?xml version="1.0" standalone="no"?><!DOCTYPE svg PUBLIC "-//W3C//DTD SVG 1.1//EN" "http://www.w3.org/Graphics/SVG/1.1/DTD/svg11.dtd"><svg t="1755186299402" class="icon" viewBox="0 0 1024 1024" version="1.1" xmlns="http://www.w3.org/2000/svg" p-id="1493" xmlns:xlink="http://www.w3.org/1999/xlink" width="200" height="200"><path d="M508.928 979.968C250.368 977.92 42.496 766.976 44.032 508.416s212.992-466.432 471.04-464.384c257.024 2.048 464.896 210.944 464.896 467.968 0 258.56-209.408 467.968-467.968 467.968h-3.072z m-200.704-670.72c-57.344 2.56-101.888 50.176-100.864 107.52v187.904c-1.536 57.344 43.52 104.96 100.864 107.52h132.608l-31.744-48.64-97.28-31.744c-17.92-6.656-29.696-24.064-28.672-43.008V432.64c-0.512-18.944 11.264-36.352 29.184-43.008l97.28-32.256 30.72-48.64-132.096 0.512z m100.864 176.128v48.64h201.216v-48.64H409.088zM711.68 309.248h-133.12l32.256 48.64 97.28 31.744c17.92 6.656 29.696 24.064 29.184 43.008V588.8c0.512 18.944-11.264 36.352-29.184 43.008l-97.28 31.744-32.256 48.128h133.12c57.344-2.048 102.4-50.176 100.864-107.52V416.768c1.024-57.344-43.52-105.472-100.864-107.52z" fill="#FF8826" p-id="1494"></path></svg>