<?xml version="1.0" standalone="no"?><!DOCTYPE svg PUBLIC "-//W3C//DTD SVG 1.1//EN" "http://www.w3.org/Graphics/SVG/1.1/DTD/svg11.dtd"><svg t="1755186680441" class="icon" viewBox="0 0 1024 1024" version="1.1" xmlns="http://www.w3.org/2000/svg" p-id="2513" xmlns:xlink="http://www.w3.org/1999/xlink" width="200" height="200"><path d="M203.264 659.456l152.064-152.064 152.064 152.064a215.04 215.04 0 0 1-304.128 0z m304.128-304.128a215.04 215.04 0 0 1 304.128 0l-152.064 152.064-152.064-152.064z" fill="#060198" p-id="2514"></path><path d="M203.264 659.456a215.04 215.04 0 0 1 0-304.128L507.392 51.2a215.04 215.04 0 0 1 0 304.128l-304.128 304.128z" fill="#00C0FF" p-id="2515"></path><path d="M659.456 811.4688l-152.064 152.064a215.04 215.04 0 0 1 0-304.128l152.064-152.064 152.064-152.064a214.9376 214.9376 0 0 1 0 304.128l-152.064 152.064z" fill="#0368EC" p-id="2516"></path></svg>